<?xml version="1.0" encoding="utf-8"?>
<!-- Generator: Adobe Illustrator 21.1.0, SVG Export Plug-In . SVG Version: 6.00 Build 0)  -->
<svg version="1.1" id="Слой_1" xmlns="http://www.w3.org/2000/svg" xmlns:xlink="http://www.w3.org/1999/xlink" x="0px" y="0px"
	 viewBox="0 0 305.1 285.5" style="enable-background:new 0 0 305.1 285.5;" xml:space="preserve">
<style type="text/css">
	.st0{fill:#F9F9FA;}
	.st1{fill:#5783B8;}
</style>
<rect x="160.2" y="188.9" class="st0" width="30.5" height="3.2"/>
<path class="st1" d="M168.2,111.4c0,0-14-31.7,32.2-49.9c1.6-0.5,18.2-4.3,23.6,9.1c0,0,31.7,2.1,17.7,39.2l-0.5,10.7H172v-10.2
	L168.2,111.4z"/>
<path class="st1" d="M165.4,181.5c-8.2-6.9-19.7-14-35.9-20.1v-19.9H96.9v19.4c0,0-54.2,16.6-55.3,52.6h90
	C138,198.8,152.9,188.2,165.4,181.5z"/>
<path class="st1" d="M79.7,106.1c0,0,30.6-85.3,68.7,0c0,0,14,4.3-7,22.5c0,0-8,13.4-11.8,15s-32.2,0-32.2,0s-5.9-3.2-12.3-11.8
	l-2.7-4.3C82.9,127.5,65.7,106.6,79.7,106.1z"/>
<path class="st1" d="M75.9,96.9c0,0-14-31.7,32.2-49.9c1.6-0.5,18.2-4.3,23.6,9.1c0,0,31.7,2.1,17.7,39.2l-0.5,10.7H79.7V95.8
	L75.9,96.9z"/>
<path class="st1" d="M173,120c0,0,30.6-85.3,68.7,0c0,0,14,4.3-7,22.5c0,0-8,13.4-11.8,15s-32.2,0-32.2,0s-5.9-3.2-12.3-11.8
	l-2.7-4.3C176.3,141.5,159.1,121.1,173,120z"/>
<path class="st1" d="M188.4,152.9v20.4c0,0-56.3,17.7-57.4,54.7h150.3c0,0-2.1-32.7-59-54.2v-20.9H188.4z"/>
</svg>
