<?xml version="1.0" encoding="utf-8"?>
<!-- Generator: Adobe Illustrator 21.1.0, SVG Export Plug-In . SVG Version: 6.00 Build 0)  -->
<svg version="1.1" id="Слой_1" xmlns="http://www.w3.org/2000/svg" xmlns:xlink="http://www.w3.org/1999/xlink" x="0px" y="0px"
	 viewBox="0 0 305.1 285.5" style="enable-background:new 0 0 305.1 285.5;" xml:space="preserve">
<style type="text/css">
	.st0{fill:#5783B8;}
</style>
<path class="st0" d="M36.6,83.2c0,0,2-40,32.3-47.3h167.7c0,0,9.3,5,0,12.3c-51.8,0.2-103.5,0.4-155.3,0.7c-7.5,7.6-9.4,16-6.4,19.8
	c0.6,0.7,2.1,2.2,5.9,2.5"/>
<path class="st0" d="M256.6,71.2h-208c-6.6,0-12,5.4-12,12v130c0,6.6,5.4,12,12,12h208c6.6,0,12-5.4,12-12v-130
	C268.6,76.6,263.2,71.2,256.6,71.2z M232.3,160.1c-7.6,0-13.7-6.1-13.7-13.7c0-7.6,6.1-13.7,13.7-13.7c7.6,0,13.7,6.1,13.7,13.7
	C246,154,239.9,160.1,232.3,160.1z"/>
</svg>
