<?xml version="1.0" encoding="utf-8"?>
<!-- Generator: Adobe Illustrator 21.1.0, SVG Export Plug-In . SVG Version: 6.00 Build 0)  -->
<svg version="1.1" id="Слой_1" xmlns="http://www.w3.org/2000/svg" xmlns:xlink="http://www.w3.org/1999/xlink" x="0px" y="0px"
	 viewBox="0 0 305.1 285.5" style="enable-background:new 0 0 305.1 285.5;" xml:space="preserve">
<style type="text/css">
	.st0{fill:#5880B0;}
</style>
<path class="st0" d="M193,79.7"/>
<path class="st0" d="M105.6,79.7"/>
<path class="st0" d="M255.2,72H58.7c-5.4,0-9.8-3-9.8-6.7v-7.7c0-3.8,4.3-6.7,9.8-6.7h196.5c5.4,0,9.8,3,9.8,6.7v7.7
	C264.9,69,260.6,72,255.2,72z"/>
<path class="st0" d="M59.8,80.9v9.8V99v125.9c0,5.4,4.3,9.8,9.8,9.8h174.9c5.4,0,9.8-4.3,9.8-9.8V96.5v-6.9v-8.8H59.8z M203.3,189.6
	l7.5,11.5h-4.5v12.5h-6.6l0.2-12.5h-4.5L203.3,189.6z M173,120.1h-29.3c-3.2,0-5.9-2.7-5.9-5.9c0-3.2,2.7-5.9,5.9-5.9H173
	c3.2,0,5.9,2.7,5.9,5.9C179,117.4,176.4,120.1,173,120.1z M229.1,222.9h-33.6v-3.5h33.6V222.9z M224.6,201.1v12.5H218l0.2-12.5h-4.5
	l7.8-11.5l7.5,11.5H224.6z"/>
</svg>
